<?xml version="1.0" encoding="utf-8"?>
<!-- Generator: Adobe Illustrator 16.0.4, SVG Export Plug-In . SVG Version: 6.00 Build 0)  -->
<!DOCTYPE svg PUBLIC "-//W3C//DTD SVG 1.1//EN" "http://www.w3.org/Graphics/SVG/1.1/DTD/svg11.dtd">
<svg version="1.1" id="图层_1" xmlns="http://www.w3.org/2000/svg" xmlns:xlink="http://www.w3.org/1999/xlink" x="0px" y="0px"
	 width="122.523px" height="122.489px" viewBox="0 0 122.523 122.489" enable-background="new 0 0 122.523 122.489"
	 xml:space="preserve">
<g>
	<path fill="#3884FF" d="M61.261,0C27.43,0,0,27.422,0,61.243c0,33.824,27.43,61.246,61.261,61.246
		c33.835,0,61.264-27.422,61.264-61.246C122.524,27.422,95.096,0,61.261,0z M92.992,39.78c-11.056,0-22.496,6.102-22.496,20.541
		c0,16.746,12.97,21.663,20.331,19.453c8.548-2.57,9.335-13.732,9.335-13.732s-4.113,8.674-12.443,6.148
		c-7.025-2.143-8.008-8.307-7.109-12.697c0.938-4.585,5.777-9.74,14.05-8.44c10.317,1.613,14.451,12.776,14.007,18.995
		c-1.015,13.957-6.731,24.701-16.048,33.789c-10.792,10.529-24.011,15.051-35.789,14.308c-0.2-0.011-0.398-0.028-0.596-0.043
		c15.159-0.692,26.49-12.884,26.49-25.13c0-11.055-6.103-22.494-20.54-22.494c-16.755,0-21.674,12.968-19.465,20.327
		c2.574,8.545,13.732,9.329,13.732,9.329s-8.676-4.108-6.143-12.439c2.136-7.016,8.302-7.998,12.697-7.105
		c4.588,0.937,9.744,5.771,8.441,14.045c-1.616,10.322-12.778,14.449-19.002,14.007c-13.96-1.015-24.713-6.733-33.798-16.046
		C8.201,81.892,3.674,68.806,4.322,57.094c0.021-0.271,0.037-0.55,0.062-0.821c0.718,15.125,12.895,26.431,25.137,26.431
		c11.058,0,22.496-6.1,22.496-20.531c0-16.753-12.973-21.67-20.334-19.452c-8.545,2.57-9.332,13.718-9.332,13.718
		s4.111-8.676,12.443-6.134c7.021,2.128,8.006,8.294,7.106,12.687c-0.938,4.588-5.772,9.74-14.047,8.444
		c-10.316-1.623-14.452-12.777-14.004-19c1.014-13.958,6.731-24.705,16.043-33.785C40.66,8.148,53.836,3.628,65.592,4.335
		c0.223,0.015,0.446,0.028,0.672,0.05c-15.15,0.7-26.475,12.883-26.475,25.13c0,11.055,6.104,22.487,20.543,22.487
		c16.752,0,21.672-12.968,19.457-20.323c-2.57-8.541-13.728-9.326-13.728-9.326s8.679,4.105,6.144,12.439
		c-2.137,7.017-8.307,8.005-12.694,7.105c-4.591-0.942-9.747-5.777-8.448-14.047c1.618-10.315,12.781-14.453,19.005-14.004
		c13.959,1.015,24.71,6.728,33.796,16.039c10.574,10.841,15.09,24.119,14.308,35.931c-0.014,0.157-0.022,0.317-0.037,0.476
		C117.456,51.124,105.254,39.78,92.992,39.78z"/>
</g>
</svg>
